<svg width="532" height="97" viewBox="0 0 532 97" fill="none" xmlns="http://www.w3.org/2000/svg">
<path d="M199.645 74.472C192.871 74.472 187.441 72.1117 183.357 67.3298C179.306 62.5479 177.28 56.1887 177.28 48.2521C177.28 40.3487 179.339 34.0061 183.456 29.2242C187.574 24.4423 192.97 22.0514 199.645 22.0514C202.8 22.0514 205.523 22.5827 207.814 23.6453C210.106 24.708 212.281 26.4182 214.34 28.7759V8.80078H225.348V73.8344H214.838V66.9313C212.613 69.5547 210.305 71.4808 207.914 72.7094C205.523 73.9049 202.767 74.472 199.645 74.472ZM191.775 35.9985C189.484 38.8212 188.338 42.9057 188.338 48.2521C188.338 53.5985 189.484 57.6996 191.775 60.5555C194.066 63.3781 197.304 64.7894 201.488 64.7894C205.672 64.7894 208.91 63.3781 211.201 60.5555C213.493 57.6996 214.638 53.5985 214.638 48.2521C214.638 42.9057 213.493 38.8212 211.201 35.9985C208.91 33.1427 205.672 31.7148 201.488 31.7148C197.304 31.7148 194.066 33.1427 191.775 35.9985Z" fill="#E76D3D"/>
<path d="M253.969 74.472C246.664 74.472 240.786 72.1117 236.336 67.3298C231.886 62.5479 229.662 56.1887 229.662 48.2521C229.662 40.3155 231.886 33.9729 236.336 29.2242C240.786 24.4423 246.664 22.0514 253.969 22.0514C261.308 22.0514 267.186 24.4423 271.603 29.2242C276.019 33.9729 278.228 40.3155 278.228 48.2521C278.228 56.1887 276.019 62.5479 271.603 67.3298C267.186 72.1117 261.308 74.472 253.969 74.472ZM240.819 48.2521C240.819 53.5653 241.965 57.6498 244.256 60.5057C246.581 63.3615 249.819 64.7894 253.969 64.7894C258.12 64.7894 261.325 63.3615 263.583 60.5057C265.874 57.6498 267.02 53.5653 267.02 48.2521C267.02 42.8725 265.874 38.7714 263.583 35.9487C261.325 33.1261 258.12 31.7148 253.969 31.7148C249.785 31.7148 246.548 33.1427 244.256 35.9985C241.965 38.8212 240.819 42.9057 240.819 48.2521Z" fill="#E76D3D"/>
<path d="M298.979 73.9547C293.666 73.9547 289.864 72.7759 287.572 70.4181C285.314 68.0604 284.185 64.5902 284.185 60.0076V32.8604H277.112V22.8276H284.185V8.80078H295.193V22.8276H305.704V32.8604H295.193V57.9653C295.193 60.1902 295.542 61.7842 296.239 62.7472C296.937 63.7102 298.315 64.1917 300.374 64.1917C302.034 64.1917 303.811 63.9759 305.704 63.5442V73.0581C303.645 73.6559 301.403 73.9547 298.979 73.9547Z" fill="#E76D3D"/>
<path d="M385.819 73.8344V22.8276H396.927V73.8344H385.819Z" fill="#E76D3D"/>
<path d="M426.146 96.1498C419.272 96.1498 413.71 94.8256 409.46 91.6377C405.242 88.4498 402.984 83.9502 402.685 78.1389H414.241C414.673 81.36 415.852 83.6347 417.778 84.963C419.704 86.3245 422.494 87.0053 426.146 87.0053C430.497 87.0053 433.585 85.843 435.411 83.5185C437.271 81.2272 438.201 77.5079 438.201 72.3608V66.9313C436.142 69.3887 433.967 71.1653 431.675 72.2611C429.417 73.3238 426.728 73.8551 423.606 73.8551C416.798 73.8551 411.352 71.514 407.268 66.8317C403.183 62.1162 401.141 55.8234 401.141 47.9532C401.141 40.1163 403.183 33.84 407.268 29.1246C411.386 24.4091 416.832 22.0514 423.606 22.0514C426.794 22.0514 429.583 22.6325 431.974 23.7948C434.365 24.957 436.607 26.7502 438.699 29.1744V22.8276H449.209V71.9125C449.209 88.2506 441.522 96.1498 426.146 96.1498ZM415.636 35.8989C413.345 38.6883 412.199 42.7065 412.199 47.9532C412.199 53.2 413.345 57.2181 415.636 60.0076C417.928 62.797 421.165 64.1917 425.349 64.1917C429.534 64.1917 432.771 62.797 435.063 60.0076C437.354 57.2181 438.5 53.2 438.5 47.9532C438.5 42.7065 437.354 38.6883 435.063 35.8989C432.771 33.1095 429.534 31.7148 425.349 31.7148C421.165 31.7148 417.928 33.1095 415.636 35.8989Z" fill="#E76D3D"/>
<path d="M456.91 73.8344V8.80078H468.018V29.3736C469.745 26.8167 471.787 24.957 474.145 23.7948C476.502 22.6325 479.325 22.0514 482.613 22.0514C494.368 22.0514 500.246 29.0582 500.246 43.0717V73.8344H489.138V43.9683C489.138 39.6846 488.391 36.6129 486.896 34.7533C485.435 32.8936 483.028 31.9638 479.674 31.9638C471.903 31.9638 468.018 36.8785 468.018 46.708V73.8344H456.91Z" fill="#E76D3D"/>
<path d="M524.514 73.9547C519.201 73.9547 515.399 72.7759 513.107 70.4181C510.849 68.0604 509.72 64.5902 509.72 60.0076V32.8604H502.647V22.8276H509.72V8.80078H520.728V22.8276H531.032V32.8604H520.728V57.9653C520.728 60.1902 521.077 61.7842 521.774 62.7472C522.472 63.7102 523.85 64.1917 525.909 64.1917C527.569 64.1917 529.139 63.9759 531.032 63.5442V73.0581C528.973 73.6559 526.938 73.9547 524.514 73.9547Z" fill="#E76D3D"/>
<path d="M360.176 74.472C352.837 74.472 346.91 72.1118 342.393 67.33C337.91 62.5149 335.669 56.1556 335.669 48.2522C335.669 43.9021 336.316 40.0334 337.612 36.6462C338.907 33.2258 340.667 30.4862 342.892 28.4274C345.15 26.3353 347.707 24.7579 350.563 23.6953C353.418 22.5994 356.49 22.0515 359.778 22.0515C366.851 22.0515 372.446 24.4092 376.564 29.1247C380.682 33.8402 382.741 39.9172 382.741 47.3556V50.3941H347.026C347.325 55.2756 348.653 58.9451 351.011 61.4024C353.369 63.8598 356.424 65.0885 360.176 65.0885C363.165 65.0885 365.523 64.5239 367.249 63.3949C368.976 62.2658 369.873 60.2526 370.836 57.8949H382.143C380.416 63.5734 377.975 67.9941 373.924 70.6175C369.906 73.2077 365.323 74.472 360.176 74.472ZM347.325 42.773H371.085C370.852 38.9209 369.757 36.0153 367.797 34.056C365.838 32.0968 363.165 31.1172 359.778 31.1172C352.771 31.1172 348.62 35.0024 347.325 42.773Z" fill="#E76D3D"/>
<path d="M24.868 74.472C17.5624 74.472 11.6846 72.1118 7.23479 67.33C2.78497 62.5481 0.560059 56.1888 0.560059 48.2522C0.560059 40.3156 2.78497 33.973 7.23479 29.2243C11.6846 24.4425 17.5624 22.0515 24.868 22.0515C32.2069 22.0515 38.0847 24.4425 42.5013 29.2243C46.9179 33.973 49.1262 40.3156 49.1262 48.2522C49.1262 56.1888 46.9179 62.5481 42.5013 67.33C38.0847 72.1118 32.2069 74.472 24.868 74.472ZM11.7178 48.2522C11.7178 53.5654 12.8635 57.65 15.1548 60.5058C17.4793 63.3617 20.7171 64.7896 24.868 64.7896C29.019 64.7896 32.2235 63.3617 34.4816 60.5058C36.773 57.65 37.9186 53.5654 37.9186 48.2522C37.9186 42.8726 36.773 38.7715 34.4816 35.9489C32.2235 33.1262 29.019 31.7149 24.868 31.7149C20.6839 31.7149 17.4461 33.1428 15.1548 35.9987C12.8635 38.8213 11.7178 42.9058 11.7178 48.2522Z" fill="#E76D3D"/>
<path d="M53.3402 73.8345V22.8278H63.8504V29.573C65.7433 26.9828 67.8852 25.09 70.2761 23.8945C72.7003 22.6659 75.5561 22.0515 78.8437 22.0515C84.7878 22.0515 89.2377 23.7617 92.1931 27.1821C95.1818 30.6024 96.6762 35.899 96.6762 43.0719V73.8345H85.5682V43.9685C85.5682 39.6847 84.8211 36.613 83.3267 34.7534C81.8656 32.8938 79.458 31.964 76.1041 31.964C68.3335 31.964 64.4482 36.8787 64.4482 46.7081V73.8345H53.3402Z" fill="#E76D3D"/>
<path d="M124.75 74.472C117.411 74.472 111.483 72.1118 106.967 67.33C102.484 62.5149 100.243 56.1556 100.243 48.2522C100.243 43.9021 100.89 40.0334 102.185 36.6462C103.48 33.2258 105.24 30.4862 107.465 28.4274C109.723 26.3353 112.28 24.7579 115.136 23.6953C117.992 22.5994 121.064 22.0515 124.351 22.0515C131.425 22.0515 137.02 24.4092 141.138 29.1247C145.256 33.8402 147.314 39.9172 147.314 47.3556V50.3941H111.6C111.899 55.2756 113.227 58.9451 115.585 61.4024C117.942 63.8598 120.997 65.0885 124.75 65.0885C127.739 65.0885 130.096 64.5239 131.823 63.3949C133.55 62.2658 134.447 60.2526 135.41 57.8949H146.717C144.99 63.5734 142.549 67.9941 138.498 70.6175C134.48 73.2077 129.897 74.472 124.75 74.472ZM111.899 42.773H135.659C135.426 38.9209 134.33 36.0153 132.371 34.056C130.412 32.0968 127.739 31.1172 124.351 31.1172C117.345 31.1172 113.194 35.0024 111.899 42.773Z" fill="#E76D3D"/>
</svg>
